<?xml version="1.0" encoding="iso-8859-1"?>
<!-- Uploaded to: SVG Repo, www.svgrepo.com, Generator: SVG Repo Mixer Tools -->
<!DOCTYPE svg PUBLIC "-//W3C//DTD SVG 1.1//EN" "http://www.w3.org/Graphics/SVG/1.1/DTD/svg11.dtd">
<svg fill="#000000" version="1.1" id="Capa_1" xmlns="http://www.w3.org/2000/svg" xmlns:xlink="http://www.w3.org/1999/xlink" 
	 width="800px" height="800px" viewBox="0 0 108.336 108.336"
	 xml:space="preserve">
<g>
	<path d="M108.267,51.385c-1.08-21.205-14.408-39.23-33.033-47.121C68.754,1.519,61.635,0,54.168,0l0,0l0,0
		C34.567,0,17.365,10.465,7.854,26.101c-4.982,8.19-7.853,17.8-7.853,28.067c0,10.268,2.871,19.877,7.853,28.066
		c9.511,15.637,26.713,26.102,46.314,26.102l0,0l0,0c7.467,0,14.586-1.52,21.063-4.264c18.627-7.891,31.955-25.916,33.033-47.121
		c0.047-0.922,0.07-1.85,0.07-2.783C108.335,53.235,108.313,52.307,108.267,51.385z M85.89,22.9c0.274,0.09,0.565,0.136,0.809,0.333
		c0.393,0.318,0.439,0.539-0.123,0.664c-0.088-0.084-0.174-0.168-0.262-0.251c-0.14-0.162-0.31-0.195-0.515-0.162
		c-0.258,0.042-0.346-0.108-0.317-0.337C85.508,22.899,85.67,22.829,85.89,22.9z M78.877,22.123l-0.002-0.001
		c-0.399-0.081-0.737-0.297-1.085-0.492c-0.775-1.734-1.617-3.423-2.538-5.054c-0.321-0.571-0.649-1.12-0.979-1.66
		c0.22-0.533,0.627-0.946,1.123-1.203c0.375-0.195,0.912,0.245,1.258,0.612c0.129,0.135,0.213,0.311,0.318,0.468
		c0.135-0.054,0.268-0.117,0.407-0.159c0.25-0.076,0.396-0.189,0.162-0.432c-0.104-0.109-0.238-0.208-0.146-0.369
		c0.103-0.169,0.293-0.142,0.457-0.122c0.121,0.014,0.248,0.055,0.353,0.117c0.385,0.227,0.709,0.541,1.228,0.523
		c0.188-0.006,0.539,0.128,0.483,0.572c-0.047,0.369,0.594,0.341,0.619,0.751l0.002,0.001c0.44-0.042,0.709,0.244,0.983,0.518
		c0.138,0.103,0.299,0.188,0.449,0.212c0.355,0.058,0.557,0.235,0.699,0.56c0.111,0.249,0.289,0.445,0.6,0.541
		c0.437,0.133,0.574,0.544,0.471,0.938c-0.104,0.401-0.004,0.676,0.244,0.968c0.613,0.72,0.541,2.103-0.155,2.732
		c-0.244,0.219-0.386,0.556-0.729,0.665c-0.064-0.012-0.13-0.004-0.193-0.008c-0.248,0.202-0.592,0.021-0.875,0.084
		c-0.016-0.013-0.031-0.018-0.047-0.03c-0.312,0.042-0.621,0.07-0.935,0.007c0.017,0.055,0.015,0.113-0.043,0.182
		c-0.086,0.105-0.235,0.146-0.34,0.079C80.094,22.743,79.291,22.78,78.877,22.123z M86.903,50.034
		c-0.26,0.088-0.528,0.089-0.797-0.005c-0.146-0.052-0.311-0.259-0.442-0.101c-0.149,0.178,0.063,0.333,0.162,0.484h-0.005
		c-0.26,0.197,0.023,0.573-0.252,0.765l-0.002-0.005c-0.174,0.153-0.387,0.231-0.575,0.083c-0.302-0.234-0.647-0.271-0.982-0.257
		c-0.075-2.57-0.241-5.075-0.505-7.509c0.036,0.02,0.074,0.033,0.107,0.059c0.025,0.035,0.031,0.076,0.039,0.117
		c0.037-0.021,0.074-0.039,0.113-0.057c0.135-0.133,0.34-0.162,0.5-0.256c0.185-0.019,0.402-0.048,0.408,0.217
		c0.006,0.281,0.121,0.5,0.291,0.698c0.16,0.186,0.096,0.374-0.031,0.499c-0.293,0.289-0.119,0.438,0.127,0.591
		c0.527,0.529,0.496,1.357,1.012,1.892c0.011,0.285,0.123,0.541,0.314,0.733c0.43,0.436,0.436,1.084,0.826,1.549
		C87.388,49.736,87.138,49.955,86.903,50.034z M94.783,44.605c-0.029,0.054-0.07,0.095-0.128,0.121
		c-0.385-0.035-0.364-0.474-0.627-0.638c-0.094,0.09-0.114,0.224-0.049,0.287c0.814,0.756,0.732,1.739,0.533,2.648
		c-0.174,0.804-0.875,1.257-1.646,1.533c-0.242-0.029-0.312-0.204-0.298-0.401c0.043-0.582-0.327-0.868-0.764-1.118
		c-0.961-0.551-1.014-0.707-0.67-1.771c0.115-0.357,0.262-0.707,0.307-1.085c0.023-0.19,0.074-0.379,0.283-0.446
		c0.248-0.08,0.314,0.162,0.451,0.276c-0.002-0.011,0.01-0.017-0.006-0.029c-0.369-0.275-0.104-0.63-0.119-0.949
		c-0.004-0.086-0.012-0.171-0.016-0.257c0.164-0.303,0.176-0.609-0.088-0.849c-0.189-0.175-0.104-0.381-0.146-0.572
		c-0.002-0.024-0.01-0.04-0.012-0.062c-0.24-0.025-0.479-0.047-0.711-0.1c-0.166-0.038-0.309-0.108-0.414-0.216
		c-0.053,0.001-0.107,0.006-0.16,0.019c-0.049,0.03-0.1,0.049-0.152,0.068c-0.078-0.011-0.135,0.012-0.19,0.037
		c-0.05,0.233-0.062,0.473-0.054,0.717c-0.205-0.042-0.323-0.169-0.412-0.329c-0.034,0.019-0.062,0.046-0.104,0.051
		c-0.541-0.083-0.924,0-0.975,0.681c-0.027,0.369-0.326,0.503-0.628,0.212c-0.567-0.55-1.221-0.87-2.018-0.873
		c-0.17,0-0.244-0.146-0.336-0.259c-0.271-0.307-0.465-0.626-0.189-1.031c0.041-0.061,0.091-0.116,0.138-0.172
		c-0.047-0.097-0.095-0.193-0.153-0.279c-0.229-0.325-0.527-0.347-0.777-0.054c-0.197,0.233-0.24,0.744-0.637,0.598
		c-0.384-0.142-0.345-0.62-0.336-0.999c0.002-0.063,0.006-0.125,0.008-0.187c0.062-0.183,0.233-0.191,0.389-0.23
		c-0.01-0.007-0.023-0.005-0.031-0.013c-0.01-0.034-0.008-0.068-0.016-0.103c-0.395,0.159-0.91,0.054-1.205-0.272
		c-0.071-0.425-0.154-0.842-0.232-1.263c0.229-0.228,0.508-0.385,0.834-0.412c0.297-0.024,0.26,0.263,0.34,0.444
		c0.078-0.176,0.117-0.318,0.131-0.443c-0.172-0.529-0.459-0.645-1.194-0.514c-0.106-0.062-0.211-0.127-0.316-0.191
		c-0.765-3.82-1.799-7.449-3.09-10.892c0.623,0.021,1.213,0.146,1.711,0.558c0.229,0.188,0.507,0.178,0.774,0.189
		c0.24,0.297,0.591,0.291,0.916,0.312c0.359,0.023,0.646,0.149,0.847,0.451c0.83,0.324,1.656,0.654,2.49,0.97
		c0.108,0.042,0.219,0.083,0.319,0.136c0.049-0.13,0.094-0.261,0.123-0.399c0.066-0.308,0.234-0.554,0.596-0.508
		c0.359,0.046,0.515-0.098,0.615-0.435c0.094-0.306,0.354-0.43,0.691-0.412c0.309,0.016,0.486,0.126,0.588,0.429
		c0.057,0.164,0.193,0.314,0.381,0.535c-0.537-0.671-0.725-1.406-1.027-2.078c-0.205-0.46-0.762-0.494-0.887-0.969
		c-0.123-0.467-0.047-1.015-0.459-1.374c-0.44-0.384-0.213-0.803-0.106-1.219c0.028-0.117,0.151-0.13,0.256-0.151
		c0.021,0.003,0.032,0.014,0.053,0.018c0.017-0.105-0.098-0.168-0.211-0.231v-0.655c0.646,0.533,1.257,0.965,1.772,1.486
		c0.394,0.394,0.894,0.622,1.291,0.992c0.354,0.327,0.134,0.398-0.174,0.451c0.004,0.125,0.01,0.25,0.017,0.374
		c-0.052,0.139-0.104,0.275-0.147,0.415c-0.099,0.314-0.244,0.438-0.523,0.16c-0.119-0.117-0.285-0.277-0.43-0.13
		c-0.156,0.158,0.041,0.307,0.145,0.422c0.248,0.275,0.717,0.46,0.34,0.958c-0.014,0.018,0.014,0.099,0.039,0.109
		c0.689,0.257,0.766,1.233,1.588,1.343c0.285,0.038,0.381,0.229,0.248,0.512c-0.107,0.229-0.096,0.475,0.104,0.637
		c0.23,0.187,0.242-0.128,0.361-0.203c0.086-0.053,0.176-0.041,0.219,0.041c0.119,0.222,0.285,0.485,0.099,0.703
		c-0.269,0.314-0.347,0.587-0.111,0.953c0.111,0.174,0.058,0.314-0.215,0.288c-0.424-0.042-0.438,0.307-0.504,0.587
		c-0.09,0.378,0.187,0.349,0.431,0.444c0.309,0.121,0.415,0.479,0.602,0.75c0.301,0.44,0.301,0.955,0.486,1.417
		c0.08,0.198,0.057,0.418-0.152,0.564c-0.443,0.31-0.549,0.778-0.561,1.273c-0.019,0.712-0.183,1.383,0.139,2.14
		c0.271,0.642,0.779,0.712,1.205,0.947c0.799,0.441,1.08,0.835,0.858,1.712c-0.086,0.341-0.09,0.64,0.011,0.974
		c0.145,0.485,0.409,0.963,0.127,1.5c-0.078,0.152,0.062,0.318,0.194,0.433C95.043,43.245,95.045,43.899,94.783,44.605z"/>
</g>
</svg>