<?xml version="1.0" standalone="no"?>
<!DOCTYPE svg PUBLIC "-//W3C//DTD SVG 20010904//EN"
 "http://www.w3.org/TR/2001/REC-SVG-20010904/DTD/svg10.dtd">
<svg version="1.0" xmlns="http://www.w3.org/2000/svg"
 width="1024.000000pt" height="1024.000000pt" viewBox="0 0 1024.000000 1024.000000"
 preserveAspectRatio="xMidYMid meet">

<g transform="translate(0.000000,1024.000000) scale(0.100000,-0.100000)"
fill="#000000" stroke="none">
<path d="M4908 8185 c-3 -3 -39 -8 -79 -10 -41 -3 -99 -12 -129 -21 -30 -8
-85 -19 -122 -24 -37 -5 -75 -13 -85 -18 -10 -5 -36 -12 -58 -16 -41 -7 -100
-28 -147 -52 -14 -8 -33 -14 -42 -14 -9 0 -24 -4 -34 -8 -85 -42 -109 -52
-118 -52 -14 0 -263 -126 -284 -144 -8 -7 -29 -18 -47 -25 -17 -7 -41 -23 -54
-37 -12 -13 -26 -24 -31 -24 -15 0 -180 -128 -293 -228 -143 -126 -314 -317
-380 -424 -5 -9 -32 -49 -60 -90 -27 -40 -57 -86 -65 -103 -9 -16 -25 -48 -37
-70 -36 -71 -91 -189 -106 -230 -63 -170 -67 -183 -84 -250 -26 -108 -45 -208
-54 -300 -5 -49 -14 -126 -19 -171 -39 -315 45 -736 211 -1069 33 -65 64 -124
70 -131 5 -6 21 -33 35 -60 14 -27 54 -92 89 -144 34 -52 66 -105 69 -117 8
-24 -8 -61 -54 -128 -154 -226 -262 -423 -286 -523 -36 -154 1 -309 102 -421
61 -67 103 -94 194 -122 137 -41 278 -15 383 72 42 34 114 135 127 177 40 132
43 146 37 218 -8 91 -28 142 -86 222 -66 92 -101 145 -101 155 0 5 33 -21 73
-58 75 -69 311 -237 384 -274 24 -12 63 -34 88 -50 l46 -29 -94 -138 c-98
-145 -177 -296 -196 -376 -6 -26 -11 -78 -11 -116 0 -173 86 -314 238 -388 67
-33 88 -38 164 -42 72 -4 100 0 156 18 138 45 233 136 272 259 26 84 27 213 1
297 -21 69 -80 194 -92 194 -4 0 -11 15 -14 33 -4 17 -17 50 -28 72 -15 30
-16 37 -4 27 8 -7 55 -21 104 -32 48 -10 125 -27 170 -39 44 -12 128 -25 185
-31 56 -5 119 -14 138 -19 19 -6 47 -13 63 -16 33 -7 36 -1 -78 -175 -141
-213 -165 -276 -165 -422 0 -88 3 -108 31 -173 35 -84 102 -158 199 -216 48
-29 78 -40 145 -49 47 -7 101 -9 119 -6 177 33 296 137 347 303 31 98 24 240
-16 338 -28 72 -183 344 -216 380 -19 21 -18 21 89 38 59 9 130 19 157 22 63
8 217 39 315 65 41 10 76 18 77 16 6 -5 -24 -79 -75 -186 -63 -134 -78 -210
-62 -316 14 -88 34 -135 92 -212 157 -205 440 -226 628 -46 104 99 147 236
122 387 -15 88 -95 254 -194 401 -23 34 -56 83 -74 110 -18 27 -31 53 -28 57
2 4 30 22 62 40 166 94 364 244 527 398 99 94 118 105 58 36 -78 -92 -158
-208 -192 -279 -36 -76 -65 -208 -56 -256 12 -65 46 -157 74 -202 81 -128 285
-217 429 -188 139 29 256 124 306 249 24 61 25 306 2 353 -9 17 -16 37 -16 44
0 18 -67 141 -88 162 -10 10 -57 78 -106 152 -49 74 -94 140 -101 145 -22 19
-36 56 -29 78 4 12 41 76 84 142 43 66 103 168 134 228 60 116 136 299 136
330 0 10 5 27 11 39 11 21 48 169 68 278 35 181 15 755 -29 859 -6 12 -13 46
-16 74 -2 29 -11 61 -18 72 -7 11 -16 39 -19 61 -4 23 -20 75 -37 115 -16 41
-30 79 -30 85 0 6 -11 31 -25 55 -14 24 -27 51 -31 59 -3 8 -10 22 -15 30 -5
8 -12 22 -15 30 -18 44 -52 109 -76 144 -16 21 -28 43 -28 48 0 11 -58 99 -75
113 -6 6 -23 30 -37 54 -70 118 -402 444 -556 546 -25 17 -55 37 -67 45 -119
82 -354 208 -446 240 -35 12 -68 25 -74 29 -5 4 -37 15 -70 25 -33 10 -82 26
-110 36 -27 10 -86 25 -130 35 -44 9 -98 23 -120 30 -22 7 -80 18 -130 23 -49
6 -97 12 -105 13 -45 5 -557 9 -562 4z m450 -160 c470 -24 995 -220 1354 -506
107 -86 154 -137 139 -152 -7 -7 -11 -55 -11 -117 0 -77 -6 -120 -20 -164 -11
-33 -20 -72 -20 -88 0 -25 -3 -28 -35 -28 -32 0 -35 3 -45 43 -36 141 -168
325 -304 422 -152 108 -294 155 -468 155 -142 0 -229 -20 -356 -81 -83 -40
-119 -65 -182 -125 -123 -118 -230 -289 -249 -398 l-7 -41 -84 -18 c-47 -9
-117 -33 -157 -53 l-71 -36 -94 46 c-145 72 -224 89 -403 90 -163 0 -210 -9
-354 -64 -242 -94 -489 -346 -591 -604 -37 -95 -76 -254 -85 -351 -5 -47 -2
-108 9 -183 35 -240 105 -408 233 -562 127 -153 232 -235 390 -304 142 -63
345 -104 448 -92 109 14 282 59 345 91 27 14 51 25 54 25 2 0 7 -19 10 -43 15
-98 107 -238 198 -300 64 -44 180 -83 267 -90 36 -3 59 -2 52 2 -8 5 1 10 24
14 67 11 140 54 199 117 62 68 86 108 110 189 46 155 2 307 -168 586 l-64 104
402 3 c220 2 402 2 404 1 6 -2 -51 -108 -88 -163 -101 -149 -167 -333 -157
-440 3 -30 13 -77 22 -104 14 -40 14 -50 3 -57 -12 -8 -5 -13 14 -10 16 2 -5
-29 -23 -34 -10 -4 -19 -11 -19 -16 0 -5 -6 -9 -14 -9 -8 0 -21 -9 -29 -20 -8
-11 -27 -21 -43 -22 -16 -1 -37 -11 -46 -21 -9 -10 -24 -17 -33 -15 -9 1 -40
-19 -68 -45 -52 -49 -183 -155 -237 -192 -16 -11 -29 -25 -30 -31 0 -13 -47
-25 -67 -17 -7 3 -13 11 -13 19 0 8 -4 14 -9 14 -4 0 -6 11 -4 24 4 19 1 24
-14 23 -11 -1 -18 4 -17 15 1 11 -10 18 -35 23 -20 4 -39 11 -42 16 -3 6 -27
-10 -53 -35 -27 -25 -45 -49 -42 -54 5 -8 -39 -32 -66 -36 -20 -3 -78 -70 -78
-91 0 -53 -82 -175 -132 -196 -33 -13 -108 -18 -108 -6 0 15 -42 6 -107 -25
-37 -18 -71 -36 -74 -41 -3 -4 -83 -46 -177 -92 -93 -46 -180 -93 -191 -104
-12 -12 -23 -21 -26 -21 -3 0 -25 -9 -50 -20 -54 -23 -52 -24 -253 90 -269
152 -510 358 -672 575 -132 178 -252 360 -295 450 -170 353 -244 761 -204
1123 65 589 341 1099 809 1491 142 119 215 171 350 249 309 177 721 299 1085
321 117 7 150 7 363 -4z m714 -616 c65 -14 161 -57 224 -100 120 -82 236 -247
268 -381 5 -23 2 -30 -25 -44 -44 -22 -113 -87 -174 -164 -93 -117 -113 -177
-78 -243 29 -57 39 -59 117 -16 58 32 81 39 127 39 66 0 145 -36 223 -100 26
-22 51 -40 55 -40 3 0 24 16 46 34 l40 35 -23 44 c-13 25 -47 68 -75 96 -54
54 -123 84 -219 97 -27 4 -48 10 -48 14 0 5 23 29 51 54 61 55 128 77 227 77
119 0 195 -26 295 -99 97 -70 186 -229 208 -372 20 -131 -29 -307 -114 -408
-59 -70 -137 -131 -222 -173 -158 -77 -118 -74 -970 -74 l-760 0 -95 28 c-240
72 -371 184 -426 366 -22 71 -35 247 -24 314 31 194 234 357 445 357 73 0 144
-20 243 -67 l73 -36 42 30 c23 16 43 38 45 50 7 45 -111 140 -195 158 -41 8
-42 24 -9 117 31 88 103 195 174 258 61 55 186 122 267 145 62 16 216 19 287
4z m989 -231 c16 -30 3 -20 -27 20 -23 30 -24 33 -5 17 13 -11 27 -28 32 -37z
m59 -73 c24 -29 24 -29 2 -10 -13 11 -28 29 -34 40 -11 21 -8 18 32 -30z
m-227 -132 c-7 -2 -19 -2 -25 0 -7 3 -2 5 12 5 14 0 19 -2 13 -5z m342 -133
c3 -6 -1 -7 -9 -4 -18 7 -21 14 -7 14 6 0 13 -4 16 -10z m-2651 -69 c127 -44
129 -47 66 -112 -120 -124 -169 -353 -120 -559 36 -146 147 -320 266 -413 63
-50 211 -127 243 -127 19 0 21 -4 15 -22 -5 -19 -113 -201 -201 -341 -66 -105
-310 -207 -497 -207 -132 0 -311 47 -422 112 -40 23 -145 108 -177 143 -58 65
-131 172 -170 250 -75 150 -82 183 -82 400 1 220 9 259 86 420 103 215 259
363 468 442 103 39 193 53 321 49 97 -3 129 -9 204 -35z m2408 -1219 c-6 -2
-14 -3 -18 -2 -4 1 -10 -2 -13 -8 -7 -11 -81 -24 -81 -14 0 10 103 40 115 33
5 -2 4 -6 -3 -9z m-179 -39 c-7 -2 -19 -2 -25 0 -7 3 -2 5 12 5 14 0 19 -2 13
-5z m-60 -21 c-16 -12 -15 -13 12 -10 25 2 31 -1 33 -19 3 -19 10 -23 42 -23
30 0 38 -3 34 -14 -3 -8 -19 -16 -36 -18 -18 -2 -36 -11 -42 -23 -6 -10 -17
-25 -23 -33 -7 -7 -13 -20 -13 -28 0 -39 -44 12 -129 149 l-24 39 82 -4 c70
-3 79 -5 64 -16z m120 11 c-7 -2 -21 -2 -30 0 -10 3 -4 5 12 5 17 0 24 -2 18
-5z m-1563 -134 c203 -310 238 -484 125 -616 -92 -107 -245 -112 -360 -12 -52
46 -96 145 -103 229 -6 86 21 151 131 318 46 70 92 142 101 160 9 17 20 32 25
32 5 0 41 -50 81 -111z m1183 -7 c42 -59 100 -157 129 -217 49 -100 53 -116
56 -191 3 -65 0 -91 -16 -126 -27 -62 -75 -113 -134 -142 -131 -65 -279 -2
-354 149 -23 47 -26 64 -23 128 4 62 11 87 50 167 25 52 70 131 100 175 30 44
66 99 79 123 13 23 27 42 30 42 4 0 41 -48 83 -108z m217 -746 c0 -2 -8 -10
-17 -17 -16 -13 -17 -12 -4 4 13 16 21 21 21 13z m-846 -270 c49 -20 76 -60
76 -113 0 -55 -12 -78 -50 -98 -73 -38 -158 -3 -181 75 -11 35 -9 43 15 84 39
68 73 80 140 52z m-784 -76 c0 -5 -5 -10 -11 -10 -5 0 -7 5 -4 10 3 6 8 10 11
10 2 0 4 -4 4 -10z m244 -13 c23 -19 30 -33 34 -75 4 -47 2 -54 -26 -82 -25
-24 -39 -30 -75 -30 -38 0 -49 5 -71 31 -27 31 -34 90 -17 133 18 47 108 61
155 23z m1996 -245 c25 -37 64 -101 88 -142 l44 -75 -26 -135 c-15 -74 -26
-145 -26 -158 0 -16 -21 -37 -82 -82 -45 -33 -85 -60 -90 -60 -4 0 -8 8 -8 18
0 9 -7 25 -14 34 -11 15 -15 16 -32 3 -33 -25 -71 -18 -113 21 -51 45 -76 108
-67 170 9 69 84 215 181 352 48 67 90 122 93 122 4 0 27 -31 52 -68z m-4132
-44 c38 -57 94 -140 125 -185 90 -132 98 -235 28 -344 -68 -106 -139 -146
-245 -137 -49 4 -59 9 -125 69 -121 110 -140 207 -72 369 44 105 188 330 212
330 5 0 40 -46 77 -102z m1387 -187 c3 -5 2 -12 -3 -15 -5 -3 -9 1 -9 9 0 17
3 19 12 6z m-40 -31 c3 -5 1 -10 -4 -10 -6 0 -11 5 -11 10 0 6 2 10 4 10 3 0
8 -4 11 -10z m-65 -44 c0 -2 -7 -6 -15 -10 -8 -3 -15 -1 -15 4 0 6 7 10 15 10
8 0 15 -2 15 -4z m-50 -30 c0 -3 -4 -8 -10 -11 -5 -3 -10 -1 -10 4 0 6 5 11
10 11 6 0 10 -2 10 -4z m1913 -238 c50 -62 134 -200 180 -298 33 -69 41 -99
45 -161 4 -67 1 -84 -20 -131 -34 -73 -83 -120 -147 -141 -63 -20 -82 -21
-153 -6 -43 9 -62 20 -101 61 -56 57 -107 157 -107 208 0 85 75 248 181 397
38 53 69 100 69 105 0 19 21 5 53 -34z m-2199 -31 c22 -34 56 -85 77 -112 21
-28 54 -84 74 -126 l36 -75 -25 -93 c-14 -51 -36 -107 -49 -125 -33 -43 -120
-89 -176 -93 -26 -2 -70 -6 -99 -9 -49 -6 -54 -4 -86 28 -43 43 -70 132 -63
207 3 30 21 84 40 126 47 99 207 335 226 335 3 0 24 -28 45 -63z m1118 -253
c24 -41 60 -99 82 -127 21 -29 54 -85 72 -124 l34 -72 -16 -73 c-9 -40 -25
-87 -35 -104 -19 -31 -84 -90 -148 -133 -20 -14 -37 -27 -39 -31 -1 -3 -17 -4
-36 -2 -18 2 -37 -1 -40 -7 -11 -18 -26 -13 -26 9 0 21 -24 27 -49 11 -21 -13
-79 48 -101 107 -11 29 -20 76 -20 105 0 54 35 166 66 215 100 155 200 302
206 302 4 0 27 -34 50 -76z m-925 -116 c-3 -8 -6 -5 -6 6 -1 11 2 17 5 13 3
-3 4 -12 1 -19z m-289 -302 c13 -14 -13 -26 -41 -20 -39 8 -41 10 -32 24 7 11
61 7 73 -4z m1022 -278 c0 -6 -6 -5 -15 2 -8 7 -15 14 -15 16 0 2 7 1 15 -2 8
-4 15 -11 15 -16z m17 -10 c-3 -8 -6 -5 -6 6 -1 11 2 17 5 13 3 -3 4 -12 1
-19z"/>
<path d="M4210 7504 c-6 -14 -10 -37 -9 -52 1 -19 4 -15 10 16 4 23 11 47 14
52 3 6 4 10 0 10 -3 0 -10 -12 -15 -26z"/>
<path d="M4367 7489 c4 -13 8 -18 11 -10 2 7 -1 18 -6 23 -8 8 -9 4 -5 -13z"/>
<path d="M4375 7450 c-3 -5 -1 -10 4 -10 6 0 11 5 11 10 0 6 -2 10 -4 10 -3 0
-8 -4 -11 -10z"/>
<path d="M4381 7414 c0 -11 3 -14 6 -6 3 7 2 16 -1 19 -3 4 -6 -2 -5 -13z"/>
<path d="M3236 7019 c-14 -17 -25 -40 -25 -52 1 -21 2 -21 6 -2 3 11 16 35 30
53 31 41 23 42 -11 1z"/>
<path d="M3220 6935 c0 -5 5 -17 10 -25 5 -8 10 -10 10 -5 0 6 -5 17 -10 25
-5 8 -10 11 -10 5z"/>
<path d="M3561 6790 c0 -14 -8 -36 -17 -48 -8 -12 -11 -22 -5 -22 17 0 33 39
28 68 -4 27 -4 27 -6 2z"/>
<path d="M3140 5946 c0 -2 8 -10 18 -17 15 -13 16 -12 3 4 -13 16 -21 21 -21
13z"/>
<path d="M2845 5910 c-9 -16 -13 -30 -11 -30 3 0 12 14 21 30 9 17 13 30 11
30 -3 0 -12 -13 -21 -30z"/>
<path d="M3180 5906 c0 -2 8 -10 18 -17 15 -13 16 -12 3 4 -13 16 -21 21 -21
13z"/>
<path d="M3189 5784 c-7 -9 -22 -20 -34 -24 -20 -9 -20 -9 1 -9 21 -1 62 34
52 44 -3 3 -11 -2 -19 -11z"/>
<path d="M3528 5065 c12 -9 26 -30 31 -48 6 -23 9 -26 10 -11 1 24 -34 74 -52
74 -6 0 -2 -7 11 -15z"/>
<path d="M4212 4630 c0 -14 2 -19 5 -12 2 6 2 18 0 25 -3 6 -5 1 -5 -13z"/>
<path d="M4386 4493 c4 -82 8 -150 10 -152 2 -2 4 64 4 147 0 98 -4 152 -10
152 -7 0 -8 -49 -4 -147z"/>
<path d="M4795 5408 c-22 -23 -31 -36 -20 -28 35 26 75 70 62 70 -2 0 -21 -19
-42 -42z"/>
<path d="M6669 5491 l-36 -6 19 -30 20 -30 -5 27 c-2 15 -1 26 2 24 3 -2 20 3
36 10 32 14 23 15 -36 5z"/>
<path d="M2965 3400 c3 -5 18 -10 32 -10 32 0 28 5 -10 14 -19 4 -26 3 -22 -4z"/>
</g>
</svg>
