<?xml version="1.0" encoding="iso-8859-1"?>
<!-- Uploaded to: SVG Repo, www.svgrepo.com, Generator: SVG Repo Mixer Tools -->
<!DOCTYPE svg PUBLIC "-//W3C//DTD SVG 1.1//EN" "http://www.w3.org/Graphics/SVG/1.1/DTD/svg11.dtd">
<svg fill="#000000" version="1.1" id="Capa_1" xmlns="http://www.w3.org/2000/svg" xmlns:xlink="http://www.w3.org/1999/xlink" 
	 width="800px" height="800px" viewBox="0 0 108.336 108.336"
	 xml:space="preserve">
<g>
	<g>
		<path d="M32.39,55.593c0.092-0.116,0.064-0.202,0.025-0.284c-0.025,0.309-0.205,0.555-0.54,0.75
			c-0.12,0.07-0.194,0.217-0.243,0.387c0.264-0.106,0.465-0.164,0.549,0.022C32.171,56.158,32.179,55.855,32.39,55.593z"/>
		<path d="M33.45,53.675c0.375-0.021,0.5-0.122,0.502-0.459c0.172-0.408,0.426-0.784,0.482-1.237
			c0.396-0.186,0.786-0.357,1.016-0.783c0.054-0.099,0.145-0.153,0.242-0.192c-0.104,0.026-0.213,0.049-0.328,0.055
			c-0.334,0.017-0.475-0.277-0.669-0.464c-0.167-0.161-0.367-0.227-0.563-0.245c-0.251-0.022-0.395-0.141-0.451-0.353
			c-0.061-0.227,0.052-0.393,0.258-0.519c0.248-0.151,0.542-0.33,0.45-0.667c-0.044-0.16-0.244-0.277-0.121-0.487
			c-0.062,0.292-0.255,0.349-0.522,0.321c-0.188-0.02-0.288-0.158-0.425-0.25c-0.46-0.312-1.131-0.212-1.48,0.213
			c-0.721,0.877-1.331,1.074-2.397,0.738c-0.348-0.109-0.697-0.15-1.055-0.137c0.017,0.034,0.039,0.065,0.04,0.11
			c0.011,0.052,0.001,0.087,0.005,0.132c0.535,0.208,0.367,0.843,0.611,1.287c0.439-0.419,0.854-0.373,1.277,0.048
			c0.152,0.151,0.414,0.192,0.626,0.285c0.189,0.084,0.436,0.14,0.427,0.399c-0.008,0.214-0.225,0.298-0.396,0.363
			c-0.238,0.09-0.427-0.044-0.51-0.252c-0.131-0.324-0.301-0.507-0.662-0.33c-0.072,0.035-0.182,0.088-0.188,0.143
			c-0.021,0.19,0.118,0.46-0.229,0.466c-0.328,0.006-0.693,0.131-0.97-0.134c-0.319-0.306-0.757-0.31-1.2-0.606
			c0.086,0.213,0.125,0.305,0.159,0.399c0.081,0.225,0.591,0.378,0.152,0.689c-0.357,0.253-0.889,0.087-1.089-0.295
			c-0.02-0.037-0.037-0.077-0.046-0.117c-0.082-0.36-0.044-0.893-0.478-0.931c-0.162-0.014-0.295,0.048-0.417,0.134
			c-0.021,0.096-0.024,0.209-0.015,0.339c0.009,0.127-0.111,0.221-0.156,0.338c-0.105,0.29-0.036,0.487,0.282,0.574
			c0.263,0.072,0.519,0.171,0.772,0.266c0.435,0.161,0.486,0.487,0.136,0.802c-0.153,0.138-0.333,0.246-0.44,0.446
			c0.799,0.003,0.803,0.003,0.848,0.845c0.02,0.351,0.226,0.527,0.521,0.636c0.283,0.104,0.554,0.235,0.816,0.382
			c-0.026-0.607,0.208-0.695,1.002-0.63c0.842,0.069,1.73,0.235,2.43-0.49c0.127-0.131,0.309-0.252,0.511-0.173
			c0.245,0.096,0.082,0.334,0.142,0.495c0.005,0.014,0.004,0.022,0.008,0.036C32.365,54.217,32.758,53.712,33.45,53.675z"/>
		<path d="M33.151,57.408c0.065-0.029,0.131-0.084,0.196-0.182c0.056-0.08,0.121-0.14,0.191-0.18
			c-0.024,0.006-0.048,0.004-0.073,0.014C33.355,57.102,33.244,57.238,33.151,57.408z"/>
		<path d="M33.539,57.048c0.215-0.044,0.407,0.063,0.533,0.24c0.063,0.088,0.131,0.146,0.203,0.192
			c-0.058-0.058-0.113-0.131-0.162-0.242C34.007,56.996,33.753,56.928,33.539,57.048z"/>
		<path d="M35.692,51.004c0.131-0.033,0.25-0.072,0.338-0.105C35.947,50.932,35.815,50.954,35.692,51.004z"/>
		<path d="M32.181,56.468c0.004,0.107,0.01,0.216,0.01,0.324c0,0.089,0.01,0.163,0.027,0.229c0-0.073,0.002-0.147,0.006-0.219
			C32.23,56.646,32.214,56.54,32.181,56.468z"/>
		<path d="M32.357,55.157c0.009,0.053,0.034,0.101,0.058,0.149c0.012-0.135-0.002-0.279-0.057-0.44
			C32.356,54.963,32.34,55.055,32.357,55.157z"/>
		<path d="M47.948,58.895c-0.004-0.021-0.006-0.043-0.008-0.064c0,0.004-0.003,0.005-0.004,0.01
			C47.934,58.875,47.933,58.891,47.948,58.895z"/>
		<path d="M47.962,58.898c-0.01,0.002-0.008-0.004-0.014-0.004c0.004,0.017,0.002,0.035,0.007,0.051
			C47.942,58.991,48.046,58.895,47.962,58.898z"/>
		<path d="M34.645,57.572c-0.144,0.006-0.264-0.022-0.369-0.092C34.388,57.594,34.515,57.609,34.645,57.572z"/>
		<path d="M47.872,67.073c0.01-0.025,0.021-0.048,0.03-0.073c-0.011,0.025-0.026,0.048-0.038,0.072
			C47.866,67.072,47.869,67.073,47.872,67.073z"/>
		<path d="M52.337,34.355c-0.244-0.061-0.449-0.162-0.605-0.358c0.262,0.2,0.23,0.379-0.02,0.586
			c-0.193,0.161-0.389,0.378-0.236,0.651c0.174,0.309,0.492,0.302,0.783,0.216c0.271-0.079,0.709-0.108,0.713-0.397
			C52.974,34.758,52.696,34.445,52.337,34.355z"/>
		<path d="M44.987,62.855c-0.05-0.267-0.104-0.529-0.208-0.83c-0.144,0.578-1.08,0.785-0.81,1.363
			c0.211,0.448,0.064,1.104,0.605,1.395c0.105-0.328,0.447-0.475,0.678-0.617s0.542,0.32,0.912,0.35
			c0.203,0.016,0.107,0.267,0.082,0.428c-0.033,0.203-0.051,0.412-0.074,0.617c0.26,0.354,0.666,0.385,1.038,0.491
			c0.173-0.082,0.325-0.2,0.527-0.087c0.343,0.262,0.272,0.607,0.196,0.954c-0.012,0.028-0.021,0.054-0.032,0.082
			c0.009-0.021,0.021-0.037,0.028-0.06c0.187-0.168,0.32-0.012,0.469,0.063c0.203-0.517,0.318-1.065,0.551-1.571
			c-0.366-0.298-0.596-0.711-0.84-1.095c-0.287-0.452-0.682-0.603-1.162-0.621c-0.518-0.019-0.955-0.178-1.291-0.56
			C45.268,63.434,45.064,63.268,44.987,62.855z"/>
		<path d="M55.807,31.018c-0.104,0.056-0.281,0.173-0.426,0.082c-0.002,0.002-0.006,0.004-0.008,0.007
			c-0.039,0.019-0.08,0.024-0.119,0.031c-0.025,0.345-0.021,0.67,0.463,0.801c0.143,0.038,0.371,0.209,0.424,0.133
			c0.254-0.366,0.736-0.207,1.008-0.486c0.093-0.095,0.062-0.214-0.055-0.252C56.676,31.195,56.346,30.74,55.807,31.018z"/>
		<path d="M45.304,11.133c0.098-0.101,0.211-0.195,0.343-0.278C45.472,10.929,45.366,11.024,45.304,11.133z"/>
		<path d="M46.899,74.486c-0.051-0.021-0.104-0.034-0.154-0.051c-0.044,0.006-0.086,0.02-0.129,0.024
			c-0.146,0.024-0.281,0.072-0.406,0.151c0.004,0.041,0.015,0.08,0.016,0.123c0.008,0.203,0.111,0.367,0.299,0.443
			c0.275,0.109,0.618,0.369,0.82-0.025C47.538,74.777,47.209,74.6,46.899,74.486z"/>
		<path d="M37.326,57.784c-0.05,0.024-0.101,0.039-0.149,0.051c0.02,0.002,0.037,0,0.057,0.003c0.328,0.045,0.697,0.119,0.939,0.325
			c0.326,0.276,0.639,0.323,0.984,0.202c-0.092-0.051-0.184-0.106-0.25-0.182C38.469,57.691,38.001,57.454,37.326,57.784z"/>
		<path d="M39.157,58.365c0.007,0.004,0.012,0.01,0.02,0.014c0.024,0.014,0.037,0.016,0.041-0.002c0-0.003,0.002-0.002,0.002-0.005
			c-0.01,0-0.021-0.001-0.041-0.013C39.171,58.361,39.164,58.361,39.157,58.365z"/>
		<path d="M34.948,57.402c-0.1,0.088-0.201,0.14-0.304,0.17c0.033-0.002,0.063,0.001,0.099-0.004
			c0.387-0.053,0.625,0.162,0.756,0.521c0.121,0.332,0.175,0.697,0.434,0.966c-0.097-0.689,0.27-1.16,0.911-1.222
			c-0.28-0.067-0.538-0.276-0.776-0.425C35.658,57.152,35.353,57.05,34.948,57.402z"/>
		<path d="M45.105,35.034c0.035-0.052,0.066-0.099,0.057-0.11c-0.547-0.65,0.271-1.668-0.608-2.23
			c-0.29-0.185-0.157-0.292,0.093-0.423c0.221-0.116,0.748-0.007,0.63-0.31c-0.157-0.404-0.104-0.976-0.58-1.207
			c-0.382-0.184-0.796-0.634-1.185,0.103c-0.114,0.217-0.689,0.101-0.871,0.487c-0.061,0.575-0.422,0.974-0.768,1.382
			c0.012,0.02,0.027,0.032,0.037,0.054c0.092,0.302-0.043,0.582-0.107,0.86c-0.076,0.329-0.324,0.471-0.67,0.428
			c-0.674-0.083-0.947,0.227-0.779,0.896c0.045,0.179,0.163,0.345-0.002,0.518c0.316,0.12,0.605,0.136,0.771-0.35
			c0.184-0.141,0.391-0.21,0.625-0.193c0.578,0.273,0.053,0.522-0.018,0.781c-0.035,0.014-0.068,0.027-0.104,0.041
			c-0.244,0.068-0.393,0.19-0.49,0.339c0.073,0.281,0.057,0.583,0.051,0.881c0-0.002,0.002-0.003,0.002-0.005
			c0.109-0.535,0.531-0.813,1.063-0.742c0.41,0.055,0.657,0.498,0.603,1.058c-0.034,0.346-0.001,0.707-0.368,0.987
			c0.471,0.043,0.365-0.302,0.364-0.438c-0.007-0.451,0.079-0.859,0.356-1.212c0.139-0.178,0.127-0.325,0.027-0.515
			c-0.23-0.441-0.146-0.854,0.299-0.992C44.036,34.966,44.579,34.696,45.105,35.034z"/>
		<path d="M32.517,57.284c-0.186-0.022-0.264-0.119-0.299-0.263c-0.003,0.363,0.061,0.746,0.569,0.879
			c0.146,0.037,0.135,0.271,0.147,0.295c-0.037-0.145,0.064-0.508,0.217-0.787C32.937,57.507,32.726,57.311,32.517,57.284z"/>
		<path d="M54.168,0C24.3,0,0,24.3,0,54.168c0,29.869,24.3,54.168,54.168,54.168s54.168-24.299,54.168-54.168
			C108.336,24.3,84.036,0,54.168,0z M85.889,22.9c0.275,0.09,0.566,0.136,0.809,0.333c0.394,0.318,0.439,0.539-0.122,0.664
			c-0.089-0.084-0.175-0.168-0.263-0.251c-0.139-0.162-0.309-0.195-0.514-0.162c-0.258,0.042-0.346-0.108-0.318-0.337
			C85.508,22.899,85.67,22.829,85.889,22.9z M73.893,16.043c0.221-0.101,0.195-0.289,0.215-0.479
			c0.08-0.856,0.605-1.498,1.287-1.851c0.375-0.195,0.912,0.245,1.258,0.612c0.129,0.135,0.214,0.311,0.318,0.468
			c0.135-0.054,0.268-0.117,0.408-0.159c0.25-0.076,0.396-0.189,0.162-0.432c-0.105-0.109-0.238-0.208-0.145-0.369
			c0.102-0.169,0.293-0.142,0.457-0.122c0.121,0.014,0.248,0.055,0.352,0.117c0.385,0.227,0.709,0.541,1.227,0.523
			c0.189-0.006,0.539,0.128,0.484,0.572c-0.047,0.369,0.594,0.341,0.619,0.751l0.002,0.001c0.441-0.042,0.709,0.244,0.984,0.518
			c0.137,0.103,0.299,0.188,0.448,0.212c0.355,0.058,0.558,0.235,0.699,0.56c0.11,0.249,0.289,0.445,0.601,0.541
			c0.436,0.133,0.573,0.544,0.471,0.938c-0.104,0.401-0.004,0.676,0.244,0.968c0.613,0.72,0.541,2.103-0.156,2.732
			c-0.244,0.219-0.385,0.556-0.73,0.665c-0.063-0.012-0.129-0.004-0.193-0.008c-0.248,0.202-0.592,0.021-0.875,0.084
			c-0.016-0.013-0.03-0.018-0.047-0.03c-0.311,0.042-0.621,0.07-0.934,0.007c0.016,0.055,0.014,0.113-0.043,0.182
			c-0.086,0.105-0.236,0.146-0.34,0.079c-0.572-0.379-1.375-0.342-1.789-0.999l-0.002-0.001c-0.605-0.123-1.068-0.562-1.643-0.754
			c-0.039-0.003-0.078-0.005-0.117-0.008c-0.254-0.115-0.471-0.3-0.742-0.391c-0.129-0.042-0.271-0.211-0.182-0.331
			c0.51-0.668-0.15-0.769-0.478-1.035c-0.041-0.001-0.08-0.004-0.121-0.008c-0.067-0.167-0.131-0.334,0.003-0.501
			c-0.003-0.041-0.007-0.082-0.007-0.122c0,0,0,0-0.002,0c-0.51,0.204-0.575-0.357-0.879-0.509
			c-0.574-0.506-1.133-1.011-1.058-1.894C73.672,16.342,73.666,16.147,73.893,16.043z M68.227,16.73
			c0.109-0.3,0.394-0.285,0.646-0.217c0.323,0.087,0.512,0.286,0.457,0.472c-0.162,0.604,0.26,0.796,0.36,1.131
			c0.058,0.192,0.267,0.368,0.072,0.572c-0.18,0.188-0.344,0.045-0.496-0.072c-0.168-0.129-0.383-0.009-0.549-0.091
			c-0.23-0.114-0.771-0.126-0.238-0.574c0.215-0.182,0.062-0.314-0.102-0.377C67.861,17.367,68.123,17.018,68.227,16.73z
			 M37.519,95.322c-0.226-0.023-0.52-0.063-0.491-0.34c0.026-0.265,0.356-0.23,0.567-0.275c0.208-0.043,0.391,0.064,0.385,0.293
			C37.974,95.27,37.736,95.293,37.519,95.322z M45.161,98.643c-0.127-0.084-0.253-0.168-0.38-0.254
			c-0.114-0.162-0.286-0.238-0.456-0.32c-0.297-0.145-0.355-0.401-0.281-0.688c0.074-0.293,0.35-0.256,0.566-0.282
			c0.143-0.021,0.293,0.03,0.436,0.016c0.857-0.09,1.059,0.021,1.107,0.631C46.2,98.322,45.915,98.584,45.161,98.643z M47.29,91.678
			c-0.129,0.082-0.195,0.129-0.115,0.271l0.002,0.004c-0.784,0.479-1.595,0.807-2.521,0.416c-0.192-0.082-0.398-0.252-0.591-0.148
			c-0.594,0.312-0.813-0.066-0.969-0.508c-0.149-0.422-0.533-0.689-0.721-1.117c0.455-0.143,0.824,0.271,1.078,0.234
			c0.576-0.084,1.252,0.018,1.731-0.438c0.333-0.318,0.478-0.4,0.593,0.168c0.133,0.653,0.793,0.912,1.404,0.631
			c0.041,0.002,0.082,0.002,0.123,0.002C47.531,91.363,47.491,91.551,47.29,91.678z M51.767,84.973
			c-0.26-0.006-0.449-0.119-0.443-0.408c0.004-0.213,0.131-0.371,0.346-0.362c0.291,0.008,0.4,0.252,0.512,0.461
			C52.138,84.914,51.968,84.977,51.767,84.973z M94.656,44.726c-0.385-0.035-0.365-0.474-0.627-0.638
			c-0.094,0.09-0.115,0.224-0.049,0.287c0.813,0.756,0.731,1.739,0.533,2.648c-0.175,0.804-0.875,1.257-1.646,1.533
			c-0.242-0.029-0.311-0.204-0.297-0.401c0.043-0.582-0.328-0.868-0.764-1.118c-0.962-0.551-1.015-0.707-0.671-1.771
			c0.115-0.357,0.263-0.707,0.308-1.085c0.022-0.19,0.074-0.379,0.283-0.446c0.248-0.08,0.313,0.162,0.45,0.276
			c-0.002-0.011,0.011-0.017-0.006-0.029c-0.369-0.275-0.104-0.63-0.119-0.949c-0.004-0.086-0.012-0.171-0.016-0.257
			c0.164-0.303,0.176-0.609-0.089-0.849c-0.188-0.175-0.104-0.381-0.146-0.572c-0.002-0.024-0.01-0.04-0.012-0.062
			c-0.24-0.025-0.479-0.047-0.711-0.1c-0.166-0.038-0.31-0.108-0.414-0.216c-0.054,0.001-0.106,0.006-0.16,0.019
			c-0.049,0.03-0.101,0.049-0.151,0.068c-0.078-0.011-0.136,0.012-0.191,0.037c-0.049,0.233-0.061,0.473-0.053,0.717
			c-0.205-0.042-0.324-0.169-0.412-0.329c-0.035,0.019-0.063,0.046-0.105,0.051c-0.541-0.083-0.924,0-0.975,0.681
			c-0.027,0.369-0.326,0.503-0.627,0.212c-0.568-0.55-1.221-0.87-2.018-0.873c-0.171,0-0.244-0.146-0.337-0.259
			c-0.271-0.307-0.465-0.626-0.188-1.031c0.041-0.061,0.09-0.116,0.137-0.172c-0.047-0.097-0.094-0.193-0.154-0.279
			c-0.229-0.325-0.527-0.347-0.777-0.054c-0.196,0.233-0.239,0.744-0.637,0.598c-0.383-0.142-0.344-0.62-0.336-0.999
			c0.002-0.063,0.006-0.125,0.008-0.187c0.063-0.183,0.234-0.191,0.39-0.23c-0.011-0.007-0.023-0.005-0.031-0.013
			c-0.01-0.034-0.008-0.068-0.017-0.103c-0.405,0.164-0.946,0.052-1.235-0.299c0.008-0.195-0.065-0.368-0.16-0.532
			c-0.123-0.215-0.313-0.428-0.08-0.674c0.234-0.248,0.529-0.414,0.873-0.442c0.298-0.024,0.261,0.263,0.341,0.444
			c0.077-0.176,0.116-0.318,0.131-0.443c-0.172-0.529-0.459-0.645-1.195-0.514c-0.467-0.27-0.889-0.607-1.482-0.615
			c-0.398-0.005-0.346-0.387-0.389-0.672c-0.096-0.655-0.184-1.313-0.342-1.958c-0.006,0.207-0.018,0.413-0.053,0.617
			c-0.035,0.192-0.021,0.398-0.302,0.479c-0.268,0.077-0.381-0.052-0.514-0.214c-0.031-0.09-0.058-0.183-0.095-0.266
			c-0.235,0-0.475-0.002-0.713,0.005c-0.123,0.004-0.326,0.011-0.354,0.075c-0.186,0.44-0.391,0.521-0.756,0.159
			c-0.154-0.153-0.244,0.077-0.314,0.188c-0.217,0.343-0.426,0.524-0.736,0.079c-0.123-0.176-0.348-0.226-0.559-0.262
			c-0.041-0.003-0.082-0.005-0.123-0.005c-0.359,0.34-0.773,0.487-1.266,0.376c-0.654-0.089-0.588,0.377-0.359,0.636
			c0.445,0.51,0.031,1.214,0.482,1.685c0.01,0.011,0.006,0.047-0.004,0.061c-0.76,1.025,0.309,1.776,0.398,2.673
			c0.12,0.044,0.241,0.089,0.362,0.134c0.388,0.225,0.627,0.543,0.66,1.007c0.008,0.121,0.043,0.281,0.125,0.348
			c0.764,0.617,0.631,1.637,1.09,2.389c0.103,0.166,0.086,0.478,0.396,0.346c0.233-0.1,0.155-0.308,0.041-0.479
			c-0.076-0.116-0.117-0.235,0.018-0.33c0.148-0.104,0.244,0.036,0.314,0.119c0.629,0.736,1.319,0.679,2.16,0.339
			c0.403-0.164,0.901-0.594,1.428-0.142c0.082,0.07,0.184-0.048,0.256-0.128c0.113-0.125,0.051-0.467,0.314-0.375
			c0.223,0.077,0.125,0.368,0.145,0.568c0,0.012,0,0.024,0,0.036c0.039,0,0.078,0,0.117-0.001c0.317,0.109,0.68,0.084,0.963,0.299
			c0.024,0.035,0.031,0.076,0.039,0.117c0.037-0.021,0.074-0.039,0.113-0.057c0.135-0.133,0.34-0.162,0.5-0.256
			c0.184-0.019,0.401-0.048,0.407,0.217c0.006,0.281,0.121,0.5,0.291,0.698c0.16,0.186,0.097,0.374-0.03,0.499
			c-0.293,0.289-0.119,0.438,0.127,0.591c0.526,0.529,0.496,1.357,1.012,1.892c0.01,0.285,0.123,0.541,0.313,0.733
			c0.431,0.436,0.437,1.084,0.826,1.549c0.174,0.205-0.076,0.424-0.31,0.503c-0.26,0.088-0.528,0.089-0.797-0.005
			c-0.146-0.052-0.311-0.259-0.442-0.101c-0.15,0.178,0.063,0.333,0.161,0.484H85.82c-0.26,0.197,0.023,0.573-0.252,0.765v0.001
			c-0.174,0.153-0.387,0.231-0.576,0.083c-0.365-0.285-0.801-0.282-1.197-0.245c-0.609,0.056-1.088-0.356-1.666-0.356
			c-0.068,0-0.127-0.05-0.154-0.095c-0.404-0.658-1.09-0.989-1.646-1.468c-0.336-0.289-0.519-0.801-0.371-1.395
			c0.188-0.759,0.342-1.541,0.396-2.328c-0.056-0.062-0.104-0.129-0.181-0.168c-0.178-0.137-0.387-0.148-0.598-0.157
			c-0.14-0.006-0.246-0.053-0.343-0.113c-0.131-0.043-0.262-0.098-0.395-0.166c-0.635-0.326-0.814-0.188-0.85,0.522
			c-0.008,0.146-0.008,0.295-0.029,0.44c-0.037,0.271-0.174,0.501-0.445,0.55c-0.287,0.051-0.389-0.216-0.473-0.423
			c-0.244-0.596-0.652-0.959-1.309-1.036c-0.138-0.017-0.287-0.089-0.396-0.18c-0.375-0.316-0.692-0.059-0.724,0.224
			c-0.063,0.619-0.829,0.429-0.954,0.947c-0.021,0.087-0.228-0.07-0.201-0.199c0.071-0.377-0.062-0.651-0.354-0.878
			c-0.057-0.044-0.11-0.16-0.092-0.217c0.232-0.708-0.438-0.579-0.73-0.757c-0.346-0.21-0.69-0.136-0.897,0.308
			c-0.139-0.269-0.059-0.501-0.086-0.724c-0.256-0.248-0.082-0.52,0.021-0.734c0.08-0.172,0.125-0.273-0.019-0.405
			c-0.004-0.042-0.006-0.083-0.01-0.123c0.401-0.206,0.851-0.005,1.26-0.135c0.002-0.038,0.005-0.075,0.005-0.112
			c-0.355-0.182-0.574-0.523-0.882-0.762c-0.039-0.003-0.078-0.006-0.116-0.008c-0.285-0.271-0.521-0.583-0.732-0.912
			c0,0.217-0.248,0.327-0.48,0.412c-0.369,0.133-0.73,0.213-1.029,0.525c-0.223,0.234-0.551,0.076-0.807-0.08
			c-0.615-0.379-0.965-0.328-1.506,0.18c-0.176,0.166-0.332,0.399-0.629,0.386c-0.871,0.042-0.871,0.042-0.867-0.792
			c0-0.172-0.104-0.454-0.223-0.322c-0.422,0.462-0.594-0.024-0.855-0.155c-0.148-0.075-0.287-0.169-0.43-0.255
			c-0.316,0.021-0.666-0.074-0.896,0.252c-0.381,0.641-0.379,0.639-0.854,0.006c-0.072-0.096-0.166-0.2-0.273-0.242
			c-0.42-0.164-0.469-0.385-0.146-0.694c0.149-0.144,0.287-0.383,0.053-0.462c-0.769-0.26-0.778-1.3-1.647-1.486
			c-0.373-0.08-0.041-0.496,0.024-0.753c-0.717-0.014-1.364-0.301-2.057-0.198c-0.197,0.029-0.271-0.135-0.289-0.333
			c-0.045-0.505,0.389-0.715,0.644-1.022c0.092-0.113,0.317,0.038,0.356,0.23c0.043,0.21,0.151,0.235,0.313,0.15
			c0.092-0.047,0.221-0.099,0.244-0.175c0.059-0.192-0.139-0.216-0.252-0.301c-0.322-0.245-0.807-0.346-0.912-0.792
			c-0.02-0.008-0.039-0.015-0.057-0.022c-0.057-0.008-0.113-0.014-0.172-0.02c-0.098-0.077-0.17-0.157-0.227-0.24
			c-0.064-0.027-0.119-0.07-0.146-0.163c-0.063-0.225,0.086-0.387,0.246-0.525c0.043-0.037,0.088-0.073,0.131-0.11
			c0.028-0.096,0.053-0.194,0.076-0.292c-0.55,0.246-0.935,0.664-1.177,1.239c-0.053,0.125-0.188,0.195-0.328,0.124
			c0.193,0.156,0.384,0.342,0.587,0.511c0.096,0.08,0.194,0.169,0.247,0.283c0.08,0.168,0.306,0.446,0.119,0.514
			c-0.623,0.228-0.147,1.218-0.907,1.257c-0.431,0.022-0.541,0.173-0.384,0.541c0.117,0.273,0.054,0.553,0.064,0.829
			c0.062,0,0.127,0.013,0.186,0.049c0.349,0.216,0.709,0.458,0.734,0.933c0.023,0.429-0.146,0.706-0.578,0.884
			c-0.699,0.29-1.072,0.885-1.26,1.603c-0.014,0.004-0.025,0.001-0.039,0.002c0.34,0.806-0.504,1.961-1.375,1.758
			c-0.229-0.053-0.459-0.034-0.689-0.003c-0.81,0.11-1.097,0.798-0.604,1.461c0.219,0.297,0.526,0.461,0.868,0.596
			c0.646,0.255,0.701,0.467,0.324,1.047c-0.211,0.326-0.092,0.587,0.311,0.763c0.193,0.084,0.408,0.139,0.531,0.37
			c0.061,0.111,0.176,0.228,0.076,0.305c-0.277,0.215-0.551,0.42-0.799,0.678c-0.15,0.158-0.369,0.042-0.566-0.031
			c0,0.004,0,0.008,0,0.012c0.006,0.077-0.006,0.151-0.006,0.227c0.129,0.333,0.295,0.29,1.006,0.093
			c0.063,0.157,0.207,0.234,0.328,0.331c0.34,0.269,0.319,0.583-0.072,1.054c-0.197,0.108-0.453,0.13-0.584,0.34
			c-0.105,0.168-0.412,0.226-0.33,0.482c0.076,0.236,0.367-0.104,0.525,0.235c-0.467,0.081-0.887,0.291-1.356,0.323
			c-0.084,0.09-0.178,0.177-0.268,0.251c-0.396,0.033-0.813,0.349-1.189-0.059c-0.006-0.07,0-0.136,0.002-0.203
			c-0.396-0.073-0.795,0.013-1.191,0.022c-0.039,0.078-0.08,0.156-0.127,0.25c-0.346,0.096-0.682,0.209-0.885,0.539
			c-0.033,0.055-0.078,0.131-0.125,0.133c-0.779,0.049-1.512,0.615-2.325,0.274c-0.001,0.003-0.003,0.006-0.005,0.009
			c0.013,0.029,0.026,0.06,0.036,0.085c0.19,0.478,0.54,0.617,0.997,0.544c0.652-0.103,1.066,0.128,1.221,0.784
			c0.123,0.405,0.037,0.725-0.332,0.98c-0.441,0.31-0.775,0.81-1.423,0.707c-0.22-0.034-0.233,0.143-0.244,0.301
			c0.001,0.261-0.231,0.335-0.382,0.474c-0.271,0.103-0.385,0.349-0.513,0.572c-0.269,0.468-0.233,0.537,0.298,0.59
			c0.398,0.04,0.744,0.251,1.141,0.313c0.316,0.052,0.221,0.349,0.242,0.599c0.039-0.294,0.279-0.246,0.47-0.271
			c0.608-0.072,1.212,0.09,1.821,0.047c0.184-0.012,0.355,0.092,0.346,0.285c-0.041,0.854,0.633,1.14,1.193,1.453
			c1.049,0.59,1.064,0.56,1.289,1.672c0.282-0.343,0.29-0.804,0.646-1.08c0.453-0.354,0.605-0.35,0.801,0.179
			c0.068,0.188,0.285,0.327,0.201,0.569c-0.004,0.09-0.002,0.181-0.023,0.269c-0.01,0.006-0.016,0.017-0.025,0.021
			c0.518,0.217,0.834,0.58,1.077,1.164c0.396,0.943,0.354,1.795,0.007,2.689c-0.113,0.289-0.188,0.628-0.548,0.627
			c0,0.002,0.002,0.004,0.002,0.006c-0.01,0.096-0.006,0.188-0.01,0.279c0.144,0.371,0.129,0.822,0.533,1.061
			c0.197,0.116,0.369,0.271,0.553,0.409c0.693,0.022,1.271,0.233,1.59,0.916c0.146,0.304,0.408,0.438,0.753,0.488
			c0.409,0.061,0.834,0.116,1.19,0.366c-0.1,0.826-0.072,1.072,0.293,1.974c0.148,0.367,0.226,0.713-0.037,1.057
			c0,0.025-0.002,0.054-0.002,0.079c0.041-0.003,0.08-0.013,0.121,0.003c0.312,0.543,0.25,0.979-0.34,1.455
			c-0.406,0.328-0.732,0.752-1.209,0.998c-0.297,0.152-0.34,0.33-0.143,0.652c0.166,0.272,0.635,0.625,0.055,0.979
			c-0.123,0.111-0.268,0.209-0.367,0.339c-0.361,0.461-0.797,0.633-1.381,0.475c-0.551-0.146-1.074-0.074-1.525,0.326
			c-0.254,0.225-0.417,0.42,0.064,0.537c0.174,0.041,0.355,0.063,0.303,0.299c-0.045,0.19-0.217,0.264-0.391,0.248
			c-0.205-0.021-0.406-0.088-0.609-0.135c-0.313-0.072-0.621-0.052-0.76,0.268c-0.215,0.496-0.611,0.475-1.001,0.377
			c-0.512-0.129-1.016-0.264-1.547-0.184c-0.307,0.047-0.439-0.33-0.738-0.277c-0.24-0.025-0.465-0.135-0.695-0.213
			c0.023,0.011,0.051,0.019,0.074,0.031c0.201,0.102,0.42,0.176,0.605,0.312c0.145,0.232,0.232,0.492,0.314,0.754
			c0.008,0.176,0.076,0.303,0.27,0.342c0.168,0.033,0.227,0.148,0.213,0.316c-0.018,0.186-0.148,0.238-0.295,0.271
			c-0.203,0.047-0.4,0.123-0.602,0.172c-0.309,0.073-0.523,0.18-0.529,0.559c-0.004,0.23-0.193,0.402-0.363,0.564
			c-0.146,0.141-0.355,0.303-0.223,0.524c0.119,0.201,0.336,0.069,0.516,0.033c0.488-0.103,1.002-0.148,1.242-0.699
			c0.035-0.08,0.148-0.06,0.23-0.06c0.549-0.092,0.881,0.17,1.049,0.666c0.207,0.607-0.051,0.938-0.707,0.986
			c-0.613,0.045-1.158,0.346-1.723,0.559c-0.252,0.097-0.313,0.421-0.166,0.593c0.639,0.752,0.313,1.424-0.102,2.104
			c-0.084,0.082-0.168,0.166-0.252,0.248c-0.293-0.287-0.627-0.483-1.051-0.498c-0.74-0.022-0.961-0.713-1.395-1.121
			c-0.15-0.141,0.1-0.225,0.227-0.27c0.359-0.125,0.367-0.35,0.199-0.637c-0.248-0.422-0.41-0.869-0.382-1.369
			c-0.39-0.092-0.641-0.211-0.231-0.625c0.23-0.232,0.509-0.494,0.141-0.877c-0.176-0.184-0.12-0.455,0.107-0.592
			c0.15-0.092,0.284-0.209,0.43-0.309c-0.354,0-0.678-0.052-0.854-0.55c-0.106-0.308-0.541-0.276-0.85-0.162
			c-0.227,0.086-0.53,0.179-0.507,0.484c0.025,0.344,0.262,0.569,0.61,0.627c0.197,0.032,0.348,0.133,0.501,0.245
			c0.328,0.24,0.302,0.478-0.077,0.568c-0.363,0.088-0.619,0.219-0.687,0.607c-0.001,0.002-0.039,0.002-0.055-0.006
			c-0.018-0.008-0.029-0.029-0.044-0.043c-0.822,0.037-0.854,0.074-0.877,1.004c0.001,0.041,0.002,0.082,0.004,0.123
			c0.268-0.055,0.504,0.064,0.751,0.129c0.392,0.896,0.335,0.975-0.753,1.012c0.001,0.123,0.003,0.248,0.004,0.371
			c0.477,0.084,0.855,0.125,0.708,0.857c-0.101,0.498,0.084,1.137,0.7,1.424c0.178,0.082,0.369,0.201,0.268,0.422
			c-0.1,0.223-0.249-0.055-0.373-0.018c-0.693,0.213-1.416-0.174-2.122,0.153c-0.462,0.216-1.239,0.041-1.638-0.25
			c-0.006-0.005-0.014-0.008-0.02-0.014c-0.073-0.056-0.137-0.113-0.176-0.177c-0.002-0.038-0.005-0.077-0.008-0.118
			c-0.042,0.094-0.117,0.184-0.121,0.278c-0.053,1.097-0.269,1.277-1.396,1.148c-0.082-0.01-0.162-0.027-0.244-0.043
			c-0.151-0.498-0.502-0.73-1.01-0.754c-0.406-0.029-0.785-0.117-1.016-0.502c-0.475-0.209-0.952-0.412-1.422-0.631
			c-0.088-0.041-0.215-0.148-0.209-0.215c0.045-0.607-0.383-0.635-0.809-0.732c-0.58-0.133-0.875-0.684-1.332-1.008
			c-0.17-0.121-0.059-0.367,0.04-0.52c0.22-0.339,0.106-0.562-0.161-0.812c-0.369-0.347-0.545-1.496-0.347-1.949
			c0.138-0.313,0.438-0.271,0.695-0.332c-0.423-0.211-0.669-0.53-0.749-1.014c-0.069-0.427-0.512-0.593-0.836-0.32
			c-0.168,0.142-0.309,0.229-0.494,0.121c-0.288-0.172-0.4,0.021-0.451,0.228c-0.053,0.213,0.043,0.371,0.309,0.342
			c0.334-0.037,0.33,0.125,0.252,0.385c-0.277,0.922-0.27,0.922-1.233,0.682c-0.436-0.106-0.665,0.059-0.586,0.521
			c0.08,0.465,0.24,0.928,0.079,1.397c-0.125,0.363-0.234,0.762-0.785,0.426c-0.139-0.084-0.239-0.094-0.32-0.071
			c-2.531-6.274-4.162-13.204-4.893-20.793c0.151,0.098,0.302,0.194,0.469,0.272c0.214,0.1,0.397,0.281,0.416,0.561
			c0.006,0.089,0.026,0.152,0.055,0.203c0.002-0.008,0.004-0.017,0.007-0.024c-0.026-0.062-0.047-0.135-0.057-0.231
			c-0.015-0.145-0.088-0.291-0.157-0.426c-0.031-0.087-0.044-0.178-0.068-0.267c-0.024-0.028-0.053-0.049-0.064-0.099
			c-0.262-1.162-0.597-2.309-0.729-3.496c-0.022-0.207-0.08-0.402-0.182-0.584c-0.095-1.793-0.143-3.621-0.143-5.483
			c0-12.523,2.156-23.493,6.458-32.918c0.018-0.001,0.035-0.006,0.053-0.006c0.321,0.006,0.596-0.147,0.885-0.254
			c0.508-0.227,0.889,0.138,0.996,0.46c0.139,0.414,0.352,0.375,0.631,0.357c0.242-0.015,0.457,0.033,0.646,0.19
			c0.14,0.027,0.245,0.089,0.257,0.249c0.295,0.002,0.588,0.005,0.881,0.008c0.034-0.023,0.066-0.053,0.104-0.066
			c0.328-0.116,0.318-0.692,0.709-0.621c0.325,0.059,0.586,0.358,0.871,0.557c0.066,0.046,0.141,0.082,0.21,0.127
			c0.125,0.001,0.251,0.002,0.376,0.002c0.295,0.216,0.59,0.208,0.883-0.003l0.001-0.001c0.271-0.162,0.479-0.451,0.875-0.338
			c0.341,0.098,0.593,0.234,0.669,0.619c0.08,0.406-0.305,0.361-0.535,0.548c0.547,0.282,1.219-0.066,1.635,0.447
			c0.013,0.196,0.096,0.316,0.313,0.285c0.308-0.045,0.559,0.127,0.831,0.214c0.252,0.039,0.459,0.361,0.756,0.121
			c0.004-0.25,0.008-0.499,0.012-0.748c0.053-0.041,0.086-0.042,0.115-0.032c-0.008-0.136-0.103-0.262-0.063-0.405l0,0
			c-0.084-0.086-0.092-0.252-0.189-0.325c-0.41-0.207-0.508-0.469-0.163-0.831c0.083-0.088,0.173-0.21,0.181-0.324
			c0.115-1.473,1.143-1.979,2.383-2.176c0.652-0.104,1.211-0.551,1.869-0.602c-0.082-0.193-0.035-0.431-0.016-0.648
			c0.039-0.411-0.037-0.587-0.51-0.497c-0.531,0.1-0.836-0.264-0.76-0.811c-0.023,0.027-0.046,0.045-0.078,0.067
			c-0.527,0.038-0.559-0.364-0.646-0.724c0.199-0.338,0.427-0.624,0.882-0.614c0.231,0.005,0.366-0.146,0.37-0.39
			c0.047-0.106,0.123-0.19,0.186-0.272c-0.582-0.099-1.209,0.027-1.705-0.397c-0.071-0.053-0.121-0.128-0.191-0.182
			c-0.461-0.36-0.381-0.802-0.195-1.265c0.077-0.193,0.19-0.312,0.415-0.312c0.54-0.004,0.563-0.325,0.427-0.728
			c-0.098-0.292-0.16-0.572-0.031-0.793c-0.217,0.223-0.328,0.496-0.183,0.884c0.129,0.343-0.039,0.492-0.347,0.552
			c-0.271,0.053-0.545-0.012-0.817,0.005c-0.687,0.043-0.749,0.101-0.843,0.817c-0.055,0.216-0.148,0.407-0.329,0.545
			c-0.669,0.117-1.095-0.367-1.429-0.761c-0.369-0.435-0.521-0.457-0.77,0.021c-0.139,0.268-0.355,0.39-0.652,0.415
			c-1.165,0.1-1.606,0.993-2.039,1.886c-0.086,0.178-0.006,0.368,0.039,0.552c0.203,0.86,0,1.177-0.853,1.448
			c-0.509,0.162-1.091,0.304-1.538,0.165c-0.604-0.189-1.283-0.289-1.799-0.728c-0.156-0.134-0.307-0.368-0.441,0.016
			c-0.158,0.288,0.18,0.742-0.309,0.918c-0.151,0.055-0.3,0.119-0.45,0.178c0.244-0.461,0.487-0.924,0.742-1.377
			c0.4-0.711,0.808-1.393,1.219-2.055c0.12-0.1,0.237-0.218,0.388-0.355c-0.042-0.024-0.075-0.043-0.116-0.066
			c0.288-0.454,0.577-0.905,0.871-1.335c0.04,0.011,0.078,0.017,0.12,0.033c0.449,0.177,1.008-0.048,1.197-0.652
			c0.165-0.523,0.666-0.603,1.068-0.804c0.44-0.22,0.951-0.312,1.166-0.864c0.118-0.304,0.484-0.304,0.754-0.402
			c1.119-0.41,2.239-0.816,3.363-1.209c0.383-0.134,0.792-0.079,1.19-0.094c0.249-0.009,0.519,0.025,0.696-0.207
			c0.139-0.181,0.318-0.366,0.518-0.192c0.251,0.22,0.696,0.269,0.715,0.718c0.006,0.188-0.006,0.378-0.01,0.567
			c0.93,0.733,1.136,1.997,2.021,2.764c0.229,0.199,0.195,0.453,0.043,0.682c-0.103,0.154-0.24,0.284-0.368,0.421
			c-0.179,0.189-0.493,0.314-0.388,0.649c0.041,0.132,0.119,0.211,0.212,0.27c0.082-0.056,0.167-0.108,0.247-0.167
			c0.307-0.154,0.611-0.029,0.918,0.011c0.164,0.021,0.395,0.144,0.482,0.027c0.297-0.392,0.793-0.469,1.117-0.757
			c0.326-0.292,0.527-0.299,0.805-0.036c0.211,0.201,0.416,0.395,0.525,0.692c0.117,0.324,0.535,0.35,0.703,0.06
			c0.119-0.206,0.365-0.197,0.532-0.381c-0.074-0.279-0.501-0.392-0.423-0.768c0.051-0.243,0.242-0.387,0.36-0.582
			c0.166-0.277,0.441-0.291,0.719-0.293c0.455-0.003,0.875-0.099,1.211-0.434c0.655-0.144,1.018,0.357,1.391,0.714
			c0.717,0.684,1.438,1.058,2.439,0.604c0.373-0.169,0.731,0.125,1.008,0.381c0.192,0.178,0.147,0.371-0.129,0.478
			c-0.359,0.14-0.709,0.261-1.099,0.097c-0.146-0.062-0.305-0.168-0.479-0.022c0.074,0.271,0.344,0.349,0.514,0.521
			c-0.082,0.125-0.162,0.25-0.244,0.375c-0.316,0.082-0.664,0.215-0.549,0.598c0.098,0.326,0.479,0.25,0.762,0.247
			c0.184-0.002,0.383-0.242,0.545,0.04c-0.594,0.091-1.15,0.354-1.775,0.32c-0.282-0.015-0.539-0.045-0.77-0.207
			c-0.23-0.161-0.438-0.181-0.693-0.017c-0.403,0.257-0.918,0.101-1.147-0.313c-0.063-0.109-0.092-0.239-0.166-0.336
			c-0.131-0.17-0.32-0.185-0.516-0.119c-0.105,0.036-0.197,0.111-0.178,0.228c0.057,0.317,0.342,0.003,0.49,0.2
			c-0.393,0.437-0.297,0.79,0.254,1.038c0.223,0.101,0.328,0.258,0.328,0.543c0,0.685,0.258,0.919,0.957,0.93
			c0.693,0.011,1.389-0.026,2.08,0.005c0.354,0.016,0.779,0.001,0.717,0.616c-0.012,0.106,0.465,0.303,0.736,0.389
			c0.324,0.102,0.656,0.182,0.977,0.303c0.059-0.052,0.129-0.095,0.227-0.105c0.181-0.002,0.359-0.023,0.529,0.054
			c0.369,0.09,0.607,0.431,0.978,0.52c0.137,0.122,0.344,0.222,0.437,0.047c0.315-0.602,0.778-0.303,1.198-0.236
			c0.354,0.058,0.692,0.303,0.869-0.317c0.09-0.32,0.535-0.243,0.813-0.065c0.168,0.108,0.291,0.252,0.477,0.053
			c0.631,0,1.232,0.063,1.512,0.761c0.055,0.114,0.107,0.229,0.166,0.341c0.131,0.25,0.191,0.665,0.566,0.55
			c0.416-0.127,1.043,0.047,1.164-0.639v-0.002c0.592,0.152,1.125,0.517,1.764,0.511c-0.064,0.108-0.107,0.237-0.195,0.319
			c-0.223,0.207-0.555,0.354-0.367,0.751c0.191,0.412,0.519,0.643,0.976,0.683c0.25,0.021,0.51,0.01,0.748,0.076
			c0.422,0.118,0.864,0.253,1.008,0.748c0.188,0.649,0.621,0.844,1.248,0.706c0.41-0.134,0.799-0.181,1.179,0.128
			c0.182,0.149,0.442,0.113,0.672,0.066c0.735-0.153,1.346,0.063,1.768,0.673c0.285,0.412,0.562,0.433,0.926,0.145
			c0.639,0.017,1.244,0.14,1.754,0.561c0.23,0.188,0.506,0.178,0.775,0.189c0.24,0.297,0.59,0.291,0.916,0.312
			c0.359,0.023,0.645,0.149,0.846,0.451c0.83,0.324,1.656,0.654,2.49,0.97c0.109,0.042,0.219,0.083,0.32,0.136
			c0.049-0.13,0.094-0.261,0.123-0.399c0.065-0.308,0.233-0.554,0.596-0.508c0.359,0.046,0.514-0.098,0.615-0.435
			c0.094-0.306,0.354-0.43,0.69-0.412c0.31,0.016,0.486,0.126,0.588,0.429c0.058,0.164,0.193,0.314,0.382,0.535
			c-0.537-0.671-0.726-1.406-1.027-2.078c-0.205-0.46-0.762-0.494-0.887-0.969c-0.123-0.467-0.047-1.015-0.459-1.374
			c-0.441-0.384-0.213-0.803-0.107-1.219c0.029-0.117,0.152-0.13,0.256-0.151c0.02,0.003,0.033,0.014,0.053,0.018
			c0.016-0.105-0.098-0.168-0.211-0.231v-0.655c0.646,0.533,1.256,0.965,1.773,1.486c0.393,0.394,0.893,0.622,1.291,0.992
			c0.354,0.327,0.133,0.398-0.174,0.451c0.004,0.125,0.01,0.25,0.016,0.374c-0.051,0.139-0.105,0.275-0.148,0.415
			c-0.098,0.314-0.244,0.438-0.522,0.16c-0.119-0.117-0.285-0.277-0.431-0.13c-0.155,0.158,0.041,0.307,0.146,0.422
			c0.248,0.275,0.717,0.46,0.34,0.958c-0.014,0.018,0.015,0.099,0.039,0.109c0.688,0.257,0.767,1.233,1.588,1.343
			c0.285,0.038,0.382,0.229,0.248,0.512c-0.106,0.229-0.096,0.475,0.104,0.637c0.229,0.187,0.242-0.128,0.361-0.203
			c0.086-0.053,0.176-0.041,0.219,0.041c0.119,0.222,0.285,0.485,0.098,0.703c-0.268,0.314-0.346,0.587-0.111,0.953
			c0.111,0.174,0.057,0.314-0.215,0.288c-0.424-0.042-0.438,0.307-0.504,0.587c-0.09,0.378,0.186,0.349,0.43,0.444
			c0.309,0.121,0.416,0.479,0.603,0.75c0.301,0.44,0.301,0.955,0.485,1.417c0.08,0.198,0.058,0.418-0.151,0.564
			c-0.443,0.31-0.55,0.778-0.562,1.273c-0.018,0.712-0.182,1.383,0.139,2.14c0.271,0.642,0.779,0.712,1.205,0.947
			c0.8,0.441,1.08,0.835,0.859,1.712c-0.086,0.341-0.09,0.64,0.01,0.974c0.146,0.485,0.41,0.963,0.127,1.5
			c-0.078,0.152,0.063,0.318,0.195,0.433c0.623,0.536,0.625,1.19,0.363,1.896C94.754,44.659,94.713,44.7,94.656,44.726z"/>
	</g>
</g>
</svg>